<?xml version="1.0" standalone="no"?>
<!DOCTYPE svg PUBLIC "-//W3C//DTD SVG 20010904//EN"
 "http://www.w3.org/TR/2001/REC-SVG-20010904/DTD/svg10.dtd">
<svg version="1.0" xmlns="http://www.w3.org/2000/svg"
 width="1280.000000pt" height="1201.000000pt" viewBox="0 0 1280.000000 1201.000000"
 preserveAspectRatio="xMidYMid meet">
<g transform="translate(0.000000,1201.000000) scale(0.100000,-0.100000)"
fill="#000000" stroke="none">
<path d="M321 11544 l-31 -26 0 -398 0 -399 33 -5 c17 -3 97 -12 177 -21 294
-32 606 -112 745 -190 185 -104 264 -252 322 -605 16 -98 18 -361 21 -3790 2
-2571 0 -3726 -8 -3820 -26 -326 -93 -546 -201 -659 -141 -146 -440 -243 -919
-296 -80 -9 -151 -18 -157 -20 -10 -3 -13 -93 -13 -403 l0 -399 23 -21 23 -22
2640 0 2641 0 21 23 c22 23 22 26 22 420 0 309 -3 399 -12 402 -7 2 -78 11
-158 20 -503 56 -823 166 -941 322 -99 131 -154 322 -179 618 -6 71 -10 685
-10 1510 l0 1391 400 363 c221 199 407 361 414 359 13 -3 2646 -3596 2768
-3776 64 -95 133 -240 154 -322 23 -90 16 -202 -17 -260 -76 -136 -225 -170
-949 -217 l-115 -8 -3 -396 c-2 -388 -2 -397 19 -423 l20 -26 2720 0 2720 0
24 25 25 24 0 389 c0 300 -3 392 -12 399 -7 6 -58 25 -113 44 -234 79 -525
251 -765 452 -154 129 -402 381 -536 547 -96 119 -3861 5218 -3883 5259 -10
17 113 134 1142 1083 1343 1241 1235 1142 1390 1266 411 327 872 566 1309 678
186 47 306 64 491 71 171 6 180 7 208 30 l29 25 0 378 0 378 -31 26 -31 26
-2450 0 -2450 0 -29 -29 -29 -29 0 -372 0 -372 28 -27 28 -28 229 -6 c246 -6
379 -22 544 -63 284 -71 447 -194 480 -365 49 -245 -156 -626 -536 -1001 -290
-286 -3169 -3008 -3178 -3005 -15 5 -20 3283 -5 3477 25 334 101 565 223 677
132 122 458 224 857 268 80 9 160 18 178 21 l32 5 0 399 0 398 -31 26 -31 26
-2623 0 -2623 0 -31 -26z"/>
</g>
</svg>
