<?xml version="1.0" encoding="UTF-8"?>
<svg version="1.1" xmlns="http://www.w3.org/2000/svg" width="160" height="160">
<path d="M0 0 C-0.33 0.99 -0.66 1.98 -1 3 C-1.04671998 4.36508864 -1.03853495 5.73255491 -0.9921875 7.09765625 C-0.5427422 26.1030461 -0.5427422 26.1030461 -5.1015625 33.87890625 C-7.27728153 39.01549509 -5.65718206 43.79987993 -4 48.875 C-3.62875 50.02742188 -3.2575 51.17984375 -2.875 52.3671875 C-2.58625 53.23601563 -2.2975 54.10484375 -2 55 C0.78930951 50.9456797 1.82389714 46.99083804 2.8125 42.25 C5.69591918 29.95335191 11.28778503 23.74106404 22 17 C32.10660981 11 32.10660981 11 35 11 C35.50629325 24.57147193 35.67828042 36.19778267 26.70703125 47.28125 C19.85166044 54.18368285 12.19847987 56.2099997 2.7421875 56.36328125 C-0.12723782 56.74030188 -0.12723782 56.74030188 -1.69921875 59.0234375 C-3.31495298 62.72070322 -4.54399172 66.44668198 -5.6875 70.3125 C-5.91244141 71.05306641 -6.13738281 71.79363281 -6.36914062 72.55664062 C-6.91877951 74.36927951 -7.4602267 76.18439889 -8 78 C-2.80695354 77.758635 -2.80695354 77.758635 1.1875 74.70703125 C1.785625 73.75183594 2.38375 72.79664062 3 71.8125 C9.16705771 62.69187059 15.63589307 57.96569705 26.4765625 55.41796875 C38.86880406 53.36538385 49.40145738 57.13381913 61 61 C60 64 60 64 58.06640625 65.0703125 C57.24011719 65.41835937 56.41382813 65.76640625 55.5625 66.125 C50.36353373 68.57678523 46.74181498 71.78602791 42.59375 75.7109375 C32.94299407 84.22802029 24.55677804 86.76164537 12.01220703 86.20556641 C8.18699541 85.81478405 4.85399993 84.39318124 1.3515625 82.890625 C-1.94343083 81.64268733 -4.52163431 81.69081194 -8 82 C-7.505 85.96 -7.505 85.96 -7 90 C-6.25878906 89.97679688 -5.51757812 89.95359375 -4.75390625 89.9296875 C24.65366164 89.42576345 24.65366164 89.42576345 33.7175293 96.30322266 C35.43486662 98.5753518 35.29661619 99.89040344 35.14453125 102.7109375 C35.07588867 104.08378906 35.07588867 104.08378906 35.00585938 105.484375 C34.94205078 106.43828125 34.87824219 107.3921875 34.8125 108.375 C34.76802734 109.32117188 34.72355469 110.26734375 34.67773438 111.2421875 C34.05774835 122.14169495 34.05774835 122.14169495 29.4609375 126.29296875 C26.19873353 129.88139311 26.09993773 132.63119029 25.625 137.3125 C24.74568803 143.46964655 23.84760112 148.1045467 19.16796875 152.5546875 C15.09576014 155.26949324 10.6950806 156.72736713 6 158 C5.38979004 158.1743457 4.77958008 158.34869141 4.15087891 158.52832031 C-9.17941226 161.45160323 -25.80480036 160.04069015 -37.625 153.0625 C-42.49425629 148.83393532 -43.65771555 144.05370672 -44.6875 137.875 C-44.81705078 137.15957031 -44.94660156 136.44414062 -45.08007812 135.70703125 C-45.59961067 132.76576233 -46 129.99211652 -46 127 C-46.8971875 126.62875 -46.8971875 126.62875 -47.8125 126.25 C-50.5203326 124.70266708 -51.43196889 123.72811917 -53 121 C-53.68324858 117.89768213 -53.97051163 114.78610987 -54.25 111.625 C-54.34023438 110.78710938 -54.43046875 109.94921875 -54.5234375 109.0859375 C-54.96298853 104.57699467 -55.27835384 100.41238262 -54 96 C-43.0616345 89.34186448 -27.42123014 90.07589544 -15 89 C-14.83322718 85.58343976 -14.83322718 85.58343976 -15 82 C-15.99 81.01 -15.99 81.01 -17 80 C-22.11364582 80.12784115 -26.11479591 82.40672453 -30.53515625 84.74609375 C-36.41618624 87.7378697 -42.04061121 89.87726487 -48.64453125 88.4140625 C-62.96125256 83.72859007 -71.88205488 72.80445775 -79 60 C-79.36144269 58.67401053 -79.70021895 57.34127559 -80 56 C-54.99740623 56.74607449 -36.79113033 58.32194813 -17.6640625 75.58203125 C-16.04224655 77.07875774 -16.04224655 77.07875774 -14 78 C-13.82984375 77.3709375 -13.6596875 76.741875 -13.484375 76.09375 C-11.85429647 70.33645135 -9.83080597 65.27115594 -7 60 C-11.39485762 56.62398953 -14.93094292 56.85988826 -20.1875 57.4375 C-31.29828576 58.35994507 -40.55170166 57.09234775 -49.5078125 50.01953125 C-54.18212634 45.96613373 -58.23211345 41.82445631 -61.74609375 36.7265625 C-63.0265619 34.96342567 -64.42284042 33.49899132 -66 32 C-64.75108386 31.51801537 -63.50081192 31.03954323 -62.25 30.5625 C-61.55390625 30.29566406 -60.8578125 30.02882813 -60.140625 29.75390625 C-51.53939699 26.72464164 -39.79861779 26.12617577 -31.375 30 C-23.30943574 34.89938675 -19.0952558 42.13617262 -14.87109375 50.36328125 C-12.6330818 53.51705592 -10.53589289 54.54696127 -7 56 C-7.38709625 50.11346744 -8.01151588 45.15255882 -11 40 C-12.99107248 38.98234073 -14.99218823 37.98422146 -17 37 C-22.49010631 31.0945665 -25.54756517 25.40593312 -25.3046875 17.26953125 C-24.53492355 11.53577669 -21.51208862 8.16396541 -17.1875 4.6875 C-11.747928 0.90301113 -6.60755197 -0.32231961 0 0 Z " fill="#5F8A1F" transform="translate(89,1)"/>
<path d="M0 0 C32.25875306 -0.73529595 32.25875306 -0.73529595 42 5 C43.86222295 8.72444589 42.88694725 13.2333939 42.6875 17.3125 C42.63432617 18.73852539 42.63432617 18.73852539 42.58007812 20.19335938 C42.15055437 29.36721738 42.15055437 29.36721738 40 33 C39.16210938 33.75667969 38.32421875 34.51335937 37.4609375 35.29296875 C34.19873353 38.88139311 34.09993773 41.63119029 33.625 46.3125 C32.74568803 52.46964655 31.84760112 57.1045467 27.16796875 61.5546875 C23.09576014 64.26949324 18.6950806 65.72736713 14 67 C13.38979004 67.1743457 12.77958008 67.34869141 12.15087891 67.52832031 C-1.17941226 70.45160323 -17.80480036 69.04069015 -29.625 62.0625 C-34.49425629 57.83393532 -35.65771555 53.05370672 -36.6875 46.875 C-36.81705078 46.15957031 -36.94660156 45.44414062 -37.08007812 44.70703125 C-37.59961067 41.76576233 -38 38.99211652 -38 36 C-38.598125 35.7525 -39.19625 35.505 -39.8125 35.25 C-42.43460704 33.75165312 -43.50684125 32.63080352 -45 30 C-46.07515878 24.55528566 -45.97131279 19.54623014 -45.5625 14.0625 C-45.51029297 13.28326172 -45.45808594 12.50402344 -45.40429688 11.70117188 C-45.27601936 9.80033228 -45.13892679 7.90009096 -45 6 C-41.535 5.505 -41.535 5.505 -38 5 C-37.01 6.485 -37.01 6.485 -36 8 C-33.4710909 8.72995326 -31.13828609 9.25069425 -28.5546875 9.66796875 C-27.800737 9.79431198 -27.0467865 9.92065521 -26.26998901 10.05082703 C-18.35664895 11.26724999 -10.5056821 11.42073146 -2.51367188 11.33618164 C-0.10513393 11.31230304 2.30230858 11.31569132 4.7109375 11.32226562 C18.84825227 12.08037171 18.84825227 12.08037171 31 7 C22.14942434 0.71894631 10.41074292 1.45420004 0 1 C0 0.67 0 0.34 0 0 Z " fill="#C97D41" transform="translate(81,92)"/>
<path d="M0 0 C-0.33 0.99 -0.66 1.98 -1 3 C-1.04671998 4.36508864 -1.03853495 5.73255491 -0.9921875 7.09765625 C-0.5427422 26.1030461 -0.5427422 26.1030461 -5.1015625 33.87890625 C-7.27728153 39.01549509 -5.65718206 43.79987993 -4 48.875 C-3.443125 50.60363281 -3.443125 50.60363281 -2.875 52.3671875 C-2.58625 53.23601563 -2.2975 54.10484375 -2 55 C0.78930951 50.9456797 1.82389714 46.99083804 2.8125 42.25 C5.69591918 29.95335191 11.28778503 23.74106404 22 17 C32.10660981 11 32.10660981 11 35 11 C35.50629325 24.57147193 35.67828042 36.19778267 26.70703125 47.28125 C19.89370703 54.14134762 12.12310027 56.18837405 2.7421875 56.65625 C-0.21300945 56.81924522 -0.21300945 56.81924522 -3 59 C-3.66 58.34 -4.32 57.68 -5 57 C-5.33 57 -5.66 57 -6 57 C-6.29003906 55.66195312 -6.29003906 55.66195312 -6.5859375 54.296875 C-6.84632812 53.12640625 -7.10671875 51.9559375 -7.375 50.75 C-7.63023438 49.58984375 -7.88546875 48.4296875 -8.1484375 47.234375 C-8.86485953 44.51328582 -9.48026703 42.35170358 -11 40 C-12.36125 39.38125 -12.36125 39.38125 -13.75 38.75 C-18.8889841 35.98285471 -21.55364725 31.56398896 -24.375 26.5625 C-25.7169218 21.06062063 -25.64409392 16.58339756 -23.5 11.3125 C-20.06057804 6.08652317 -15.1474173 2.8145376 -9.375 0.625 C-6.15478316 0.02866355 -3.26555481 -0.15929536 0 0 Z " fill="#64911E" transform="translate(89,1)"/>
<path d="M0 0 C0.59683594 0.26554687 1.19367187 0.53109375 1.80859375 0.8046875 C18.08524387 7.43143658 36.70712834 6.50939379 54 7 C50.77208445 9.1519437 49.71599191 9.20086443 46 9 C46.495 10.485 46.495 10.485 47 12 C47.495 13.485 47.495 13.485 48 15 C48.99 15.33 49.98 15.66 51 16 C51 16.66 51 17.32 51 18 C51.99 18.33 52.98 18.66 54 19 C54 19.66 54 20.32 54 21 C54.66 21 55.32 21 56 21 C56.625 23.375 56.625 23.375 57 26 C56.34 26.66 55.68 27.32 55 28 C54.33484375 29.28583984 54.33484375 29.28583984 53.65625 30.59765625 C49.2559558 34.5773341 44.20413602 33.60020187 38.5 33.4375 C36.81777344 33.42879883 36.81777344 33.42879883 35.1015625 33.41992188 C9.61335613 33.05202051 9.61335613 33.05202051 1.5 25.75 C-1.61616686 20.03702743 -1.06246492 13.8436685 -0.5625 7.5625 C-0.51029297 6.83095703 -0.45808594 6.09941406 -0.40429688 5.34570312 C-0.27615124 3.56331378 -0.1390184 1.7815743 0 0 Z " fill="#F6974F" transform="translate(36,99)"/>
<path d="M0 0 C25.00259377 0.74607449 43.20886967 2.32194813 62.3359375 19.58203125 C63.95775345 21.07875774 63.95775345 21.07875774 66 22 C66.33 20.35 66.66 18.7 67 17 C67.93423645 20.01031744 68.04449911 20.86650268 67 24 C64 25 64 25 61.6875 24.38671875 C58.00467812 23.85677781 56.23441733 25.0508977 53 26.8125 C39.2933582 34.17282678 39.2933582 34.17282678 31.35546875 32.4140625 C17.03874744 27.72859007 8.11794512 16.80445775 1 4 C0.63855731 2.67401053 0.29978105 1.34127559 0 0 Z " fill="#5D8A24" transform="translate(9,57)"/>
<path d="M0 0 C-1 3 -1 3 -2.93359375 4.0703125 C-3.75988281 4.41835937 -4.58617187 4.76640625 -5.4375 5.125 C-9.68405221 7.10070089 -12.56568044 9.321044 -15.875 12.625 C-20.74258423 17.22301865 -26.14622916 20.13064373 -33 20 C-35.3671875 18.21484375 -35.3671875 18.21484375 -37 16 C-36.75 13.25 -36.75 13.25 -36 11 C-36.9075 11.495 -37.815 11.99 -38.75 12.5 C-42 14 -42 14 -46 14 C-46 14.66 -46 15.32 -46 16 C-49.87684087 17.19287411 -52.91621923 18 -57 18 C-57.33 17.01 -57.66 16.02 -58 15 C-58.66 15.33 -59.32 15.66 -60 16 C-58.5887372 8.70036483 -52.9658695 3.3900621 -47.08203125 -0.75 C-31.51330839 -10.09707564 -15.89154417 -5.29718139 0 0 Z " fill="#70A437" transform="translate(150,62)"/>
<path d="M0 0 C2.88029243 0.58667164 5.71184863 1.22998894 8.5625 1.9375 C9.36880859 2.13279297 10.17511719 2.32808594 11.00585938 2.52929688 C13.00517341 3.01433756 15.00275401 3.50651292 17 4 C17 4.66 17 5.32 17 6 C17.65597168 6.05534912 18.31194336 6.11069824 18.98779297 6.16772461 C21.95057273 6.42009399 24.91277374 6.67871815 27.875 6.9375 C28.90753906 7.02451172 29.94007812 7.11152344 31.00390625 7.20117188 C32.48310547 7.33168945 32.48310547 7.33168945 33.9921875 7.46484375 C35.35899658 7.58267212 35.35899658 7.58267212 36.75341797 7.70288086 C39 8 39 8 41 9 C43.61481327 13.54151779 42.84064883 17.04017192 42 22 C41.01 22 40.02 22 39 22 C38.79375 22.804375 38.5875 23.60875 38.375 24.4375 C37.92125 25.283125 37.4675 26.12875 37 27 C28.23520207 29.17121894 16.5267604 29.75256967 8.1875 25.875 C4.26530316 23.46956412 1.77476218 21.35623444 0 17 C-0.20233984 14.19614797 -0.19028083 11.490486 -0.04296875 8.68359375 C0.00048029 5.97000398 -0.46481555 3.64799958 -1 1 C-0.67 0.67 -0.34 0.34 0 0 Z " fill="#F59E53" transform="translate(46,130)"/>
<path d="M0 0 C0.33 0 0.66 0 1 0 C1.495 3.465 1.495 3.465 2 7 C2.90363281 6.97679688 3.80726562 6.95359375 4.73828125 6.9296875 C5.91777344 6.91164063 7.09726563 6.89359375 8.3125 6.875 C10.07013672 6.84019531 10.07013672 6.84019531 11.86328125 6.8046875 C15 7 15 7 18 9 C20.75300303 9.76495657 23.5217247 10.39402218 26.30859375 11.0234375 C29.38087516 12.13819854 30.87439927 13.55782043 33 16 C25.68834189 19.43200278 18.89536265 20.1554526 10.8203125 20.203125 C9.66376663 20.21167511 9.66376663 20.21167511 8.4838562 20.22039795 C6.8551366 20.22979958 5.22639839 20.23636256 3.59765625 20.24023438 C1.16630453 20.24983687 -1.26416225 20.28086242 -3.6953125 20.3125 C-11.76896607 20.36788189 -19.59743754 20.01157984 -27.5703125 18.671875 C-28.29048553 18.55515442 -29.01065857 18.43843384 -29.75265503 18.31817627 C-31.75830078 17.94042969 -31.75830078 17.94042969 -35 17 C-35.66 16.01 -36.32 15.02 -37 14 C-39.31 14 -41.62 14 -44 14 C-44 18.62 -44 23.24 -44 28 C-44.33 28 -44.66 28 -45 28 C-46.57099698 17.12386707 -46.57099698 17.12386707 -45 13 C-33.59118055 6.05550121 -16.88881731 6.79755784 -4 7 C-4 8.98 -4 10.96 -4 13 C-2.68 13 -1.36 13 0 13 C0 8.71 0 4.42 0 0 Z " fill="#684C37" transform="translate(80,84)"/>
<path d="M0 0 C0.33 0 0.66 0 1 0 C0.88964039 3.39647413 0.75912556 6.79188789 0.625 10.1875 C0.57859375 11.62706055 0.57859375 11.62706055 0.53125 13.09570312 C0.49257812 14.02705078 0.45390625 14.95839844 0.4140625 15.91796875 C0.3826416 16.77156982 0.3512207 17.6251709 0.31884766 18.50463867 C-0.23281334 22.82204068 -1.29747897 25.36556947 -4.5390625 28.29296875 C-7.80126647 31.88139311 -7.90006227 34.63119029 -8.375 39.3125 C-9.25431197 45.46964655 -10.15239888 50.1045467 -14.83203125 54.5546875 C-18.90423986 57.26949324 -23.3049194 58.72736713 -28 60 C-28.90552612 60.26369385 -28.90552612 60.26369385 -29.8293457 60.53271484 C-34.30050215 61.49523801 -38.94529154 61.18469192 -43.5 61.1875 C-44.54542969 61.19974609 -45.59085938 61.21199219 -46.66796875 61.22460938 C-48.17810547 61.22750977 -48.17810547 61.22750977 -49.71875 61.23046875 C-50.63591797 61.23457764 -51.55308594 61.23868652 -52.49804688 61.24291992 C-55.11817127 60.9885265 -56.74956344 60.32821818 -59 59 C-57.87464844 59.01160156 -56.74929687 59.02320313 -55.58984375 59.03515625 C-45.67278878 59.10461253 -35.88546014 58.81649818 -26 58 C-26 57.34 -26 56.68 -26 56 C-25.0925 55.505 -24.185 55.01 -23.25 54.5 C-18.69478495 51.6934694 -17.57893884 46.86684678 -16 42 C-17.74824329 39.78536295 -18.62746139 39.05824612 -21.4609375 38.61523438 C-22.90339844 38.60459961 -22.90339844 38.60459961 -24.375 38.59375 C-25.44363281 38.57183594 -26.51226562 38.54992187 -27.61328125 38.52734375 C-28.73089844 38.51832031 -29.84851563 38.50929687 -31 38.5 C-39.4857186 38.42953733 -46.90669488 37.6518144 -55 35 C-55 34.67 -55 34.34 -55 34 C-53.5162085 33.91697632 -53.5162085 33.91697632 -52.00244141 33.83227539 C-48.33828038 33.62609125 -44.67447165 33.41414435 -41.01074219 33.20043945 C-39.42391858 33.10869208 -37.83700336 33.0185154 -36.25 32.92993164 C-33.97109576 32.80245543 -31.6925789 32.66936515 -29.4140625 32.53515625 C-28.70255035 32.49656998 -27.99103821 32.4579837 -27.25796509 32.41822815 C-23.50403658 32.23357339 -23.50403658 32.23357339 -20 31 C-18.00039988 30.960008 -15.99952758 30.95653201 -14 31 C-14 30.34 -14 29.68 -14 29 C-11.5 27.375 -11.5 27.375 -9 26 C-9.08378906 25.37351562 -9.16757813 24.74703125 -9.25390625 24.1015625 C-9.40666016 22.87566406 -9.40666016 22.87566406 -9.5625 21.625 C-9.71912109 20.40683594 -9.71912109 20.40683594 -9.87890625 19.1640625 C-10 17 -10 17 -9 15 C-10.32 15 -11.64 15 -13 15 C-13.495 12.03 -13.495 12.03 -14 9 C-13.34 8.67 -12.68 8.34 -12 8 C-11.34 7.34 -10.68 6.68 -10 6 C-8.68878529 5.25151494 -7.35239442 4.54622517 -6 3.875 C-5.29875 3.52179688 -4.5975 3.16859375 -3.875 2.8046875 C-2 2 -2 2 0 2 C0 1.34 0 0.68 0 0 Z " fill="#975A2A" transform="translate(123,99)"/>
<path d="M0 0 C0.556875 0.474375 1.11375 0.94875 1.6875 1.4375 C4.36485945 3.24652666 5.7591342 3.92463103 9 4 C10.36318359 2.94232422 10.36318359 2.94232422 11.75390625 1.86328125 C17.59307959 -1.60570848 24.373725 0.93905002 30.625 2.25 C33.2198411 2.76324431 35.81698326 3.26373545 38.4140625 3.765625 C40.13036865 4.11802246 40.13036865 4.11802246 41.88134766 4.47753906 C44.66705924 4.94422317 47.18497074 5.1039922 50 5 C49.01 4.01 48.02 3.02 47 2 C47.33 1.34 47.66 0.68 48 0 C48.48210937 0.42152344 48.96421875 0.84304687 49.4609375 1.27734375 C50.09257813 1.82519531 50.72421875 2.37304688 51.375 2.9375 C52.00148437 3.48277344 52.62796875 4.02804688 53.2734375 4.58984375 C54.95632334 6.06958624 54.95632334 6.06958624 57 7 C57.33 5.35 57.66 3.7 58 2 C58.93423645 5.01031744 59.04449911 5.86650268 58 9 C55 10 55 10 52.6875 9.38671875 C49.00467812 8.85677781 47.23441733 10.0508977 44 11.8125 C30.2933582 19.17282678 30.2933582 19.17282678 22.35546875 17.4140625 C13.40736787 14.48559312 6.20948553 9.01070947 0 2 C0 1.34 0 0.68 0 0 Z " fill="#4E7418" transform="translate(18,72)"/>
<path d="M0 0 C31.34142656 -0.7143867 31.34142656 -0.7143867 42 5 C42 6.32 42 7.64 42 9 C40.84371094 9.61488281 40.84371094 9.61488281 39.6640625 10.2421875 C38.66117188 10.78101562 37.65828125 11.31984375 36.625 11.875 C35.12839844 12.67550781 35.12839844 12.67550781 33.6015625 13.4921875 C30.94651605 14.8820138 30.94651605 14.8820138 29 17 C29.88214887 19.88214887 29.88214887 19.88214887 31 22 C31.66 22 32.32 22 33 22 C33.27599507 23.76696843 33.51996915 25.53896215 33.75 27.3125 C33.88921875 28.29863281 34.0284375 29.28476563 34.171875 30.30078125 C34 33 34 33 32.140625 34.85546875 C30 36 30 36 28 36 C28 36.66 28 37.32 28 38 C19.96428571 40.27678571 19.96428571 40.27678571 16 39 C16.804375 38.690625 17.60875 38.38125 18.4375 38.0625 C21.15526039 36.30326266 21.15526039 36.30326266 21.51953125 33.8671875 C21.67126959 32.26750535 21.78557422 30.66376071 21.859375 29.05859375 C22 27 22 27 23 25 C22.01 25 21.02 25 20 25 C18.1875 22.8125 18.1875 22.8125 17 20 C17.8125 17.1875 17.8125 17.1875 19 15 C16.36 15 13.72 15 11 15 C11 14.34 11 13.68 11 13 C10.01 12.67 9.02 12.34 8 12 C8.62567871 11.91959473 9.25135742 11.83918945 9.89599609 11.75634766 C12.72355296 11.38799282 15.54921035 11.0066651 18.375 10.625 C19.35984375 10.49867187 20.3446875 10.37234375 21.359375 10.2421875 C22.30039063 10.11328125 23.24140625 9.984375 24.2109375 9.8515625 C25.08024902 9.73635254 25.94956055 9.62114258 26.84521484 9.50244141 C29.19833324 9.15370801 29.19833324 9.15370801 31 7 C22.14942434 0.71894631 10.41074292 1.45420004 0 1 C0 0.67 0 0.34 0 0 Z " fill="#C6783D" transform="translate(81,92)"/>
<path d="M0 0 C0.66 0.99 1.32 1.98 2 3 C4.36501963 3.72913649 6.5110903 4.22353226 8.9375 4.625 C9.65953613 4.75052246 10.38157227 4.87604492 11.12548828 5.00537109 C19.69412477 6.33701918 28.33967777 6.50752839 36.99584961 6.70947266 C38.68013062 6.74886963 38.68013062 6.74886963 40.3984375 6.7890625 C41.90929932 6.81540771 41.90929932 6.81540771 43.45068359 6.84228516 C46 7 46 7 49 8 C49 8.66 49 9.32 49 10 C53.455 9.505 53.455 9.505 58 9 C57.443125 10.60875 57.443125 10.60875 56.875 12.25 C55.68508268 15.81629347 55.68508268 15.81629347 56.875 18.4375 C57.24625 18.953125 57.6175 19.46875 58 20 C58.99 20 59.98 20 61 20 C61.17568413 24.47994538 61.29545711 28.06493066 59 32 C55.03879599 35.58984113 51.07933433 35.26082631 46.01171875 35.10546875 C45.34785156 35.07066406 44.68398437 35.03585938 44 35 C46.75 29.25 46.75 29.25 49 27 C49 25.68 49 24.36 49 23 C48.34 23 47.68 23 47 23 C45.65576661 21.34211215 44.32381517 19.67423683 43 18 C41.68036291 16.98199424 40.34990354 15.97751635 39 15 C38.505 14.01 38.505 14.01 38 13 C38.33 12.34 38.66 11.68 39 11 C41.5625 10.375 41.5625 10.375 44 10 C43.41323486 9.98541748 42.82646973 9.97083496 42.22192383 9.95581055 C31.23316768 9.65391578 20.33400511 9.13593782 9.4375 7.625 C8.14646362 7.4542395 8.14646362 7.4542395 6.8293457 7.2800293 C2.06011509 6.57002069 -1.82590036 5.57172015 -6 3 C-6.33 2.34 -6.66 1.68 -7 1 C-4.46578263 -0.26710868 -2.80561762 -0.28056176 0 0 Z " fill="#D98242" transform="translate(43,97)"/>
<path d="M0 0 C0.08724706 3.4165052 0.14047325 6.83272313 0.1875 10.25 C0.21263672 11.21808594 0.23777344 12.18617187 0.26367188 13.18359375 C0.27333984 14.11816406 0.28300781 15.05273438 0.29296875 16.015625 C0.3086792 16.87446289 0.32438965 17.73330078 0.34057617 18.61816406 C-0.07413015 21.51843281 -0.99509606 22.8930382 -3 25 C-3.66 25 -4.32 25 -5 25 C-5.66 24.34 -6.32 23.68 -7 23 C-8.32 23 -9.64 23 -11 23 C-10.01 26.63 -9.02 30.26 -8 34 C-10 33 -10 33 -10.78125 30.75 C-11.5 28 -11.5 28 -12.21875 25.25 C-12.7671887 22.82546793 -12.7671887 22.82546793 -15 22 C-15.66 22.99 -16.32 23.98 -17 25 C-18.32 25 -19.64 25 -21 25 C-22.53183938 20.40448187 -22.99163581 15.56254402 -21.2109375 10.9609375 C-19.5683062 8.0142325 -17.81366819 4.91329437 -15 3 C-13.33333333 3 -11.66666667 3 -10 3 C-6.09319584 0.71309025 -4.68242983 0 0 0 Z " fill="#7EB92D" transform="translate(86,3)"/>
<path d="M0 0 C-2.34576794 13.14951604 -13.43893775 26.34951511 -23 35 C-23.66 35 -24.32 35 -25 35 C-25.33 33.68 -25.66 32.36 -26 31 C-26.66 31 -27.32 31 -28 31 C-28 30.01 -28 29.02 -28 28 C-27.34 27.67 -26.68 27.34 -26 27 C-26.17660156 26.41863281 -26.35320312 25.83726563 -26.53515625 25.23828125 C-27.43180712 20.9207943 -26.11612494 16.87894415 -23.9140625 13.171875 C-19.26864171 7.21069919 -7.9014915 -2.82196125 0 0 Z " fill="#6A9A20" transform="translate(121,16)"/>
<path d="M0 0 C-0.33 0.99 -0.66 1.98 -1 3 C-1.04671998 4.36508864 -1.03853495 5.73255491 -0.9921875 7.09765625 C-0.5427422 26.1030461 -0.5427422 26.1030461 -5.1015625 33.87890625 C-7.27728153 39.01549509 -5.65718206 43.79987993 -4 48.875 C-3.443125 50.60363281 -3.443125 50.60363281 -2.875 52.3671875 C-2.58625 53.23601563 -2.2975 54.10484375 -2 55 C-1.01 54.34 -0.02 53.68 1 53 C1.66 53 2.32 53 3 53 C3.53625 52.855625 4.0725 52.71125 4.625 52.5625 C7.36166031 51.91434361 10.10398635 51.58374552 12.89453125 51.25390625 C15.93750904 50.88694232 18.96714102 50.44229193 22 50 C18.62499419 54.16912483 14.14485433 55.75859984 8.98046875 56.33984375 C6.87932623 56.48466252 4.77615792 56.60328273 2.671875 56.69140625 C-0.22397131 56.82028976 -0.22397131 56.82028976 -3 59 C-3.66 58.34 -4.32 57.68 -5 57 C-5.33 57 -5.66 57 -6 57 C-6.29003906 55.66195312 -6.29003906 55.66195312 -6.5859375 54.296875 C-6.84632812 53.12640625 -7.10671875 51.9559375 -7.375 50.75 C-7.63023438 49.58984375 -7.88546875 48.4296875 -8.1484375 47.234375 C-8.86485953 44.51328582 -9.48026703 42.35170358 -11 40 C-12.36125 39.38125 -12.36125 39.38125 -13.75 38.75 C-18.07468414 36.42132393 -20.49516111 33.1836139 -23 29 C-23 28.34 -23 27.68 -23 27 C-22.01 26.67 -21.02 26.34 -20 26 C-18.33289654 24.50014391 -18.33289654 24.50014391 -17 23 C-14.53721199 25.46278801 -14.00228745 27.70676982 -13 31 C-13.33 29.02 -13.66 27.04 -14 25 C-12.35 24.67 -10.7 24.34 -9 24 C-8.67 24.99 -8.34 25.98 -8 27 C-7.34 27 -6.68 27 -6 27 C-4.22330777 23.93843346 -3.75949182 21.75963785 -3.8046875 18.234375 C-3.81113281 17.34492188 -3.81757812 16.45546875 -3.82421875 15.5390625 C-3.84097656 14.61867188 -3.85773438 13.69828125 -3.875 12.75 C-3.88402344 11.81414063 -3.89304687 10.87828125 -3.90234375 9.9140625 C-3.92586364 7.60911343 -3.95873147 5.3046884 -4 3 C-4.99 3.495 -4.99 3.495 -6 4 C-6 3.34 -6 2.68 -6 2 C-8.91517292 3.07401108 -10.77810176 3.77810176 -13 6 C-13.99 5.34 -14.98 4.68 -16 4 C-10.59316713 0.4469384 -6.40508852 -0.14895555 0 0 Z " fill="#4C6619" transform="translate(89,1)"/>
<path d="M0 0 C0.75925781 -0.01224609 1.51851562 -0.02449219 2.30078125 -0.03710938 C6.1769826 -0.04729204 9.22090235 -0.01891411 12.5 2.1875 C12.5 2.8475 12.5 3.5075 12.5 4.1875 C13.16 4.1875 13.82 4.1875 14.5 4.1875 C12.625 10.9375 12.625 10.9375 11.5 13.1875 C13.975 14.6725 13.975 14.6725 16.5 16.1875 C15.51 16.6825 15.51 16.6825 14.5 17.1875 C11.73325418 16.11414301 9.06805742 14.98489939 6.375 13.75 C5.62089844 13.41162109 4.86679687 13.07324219 4.08984375 12.72460938 C2.22340669 11.88589399 0.3612857 11.03758607 -1.5 10.1875 C-1.83 10.8475 -2.16 11.5075 -2.5 12.1875 C-2.5 11.5275 -2.5 10.8675 -2.5 10.1875 C-3.16 10.1875 -3.82 10.1875 -4.5 10.1875 C-4.5 10.8475 -4.5 11.5075 -4.5 12.1875 C-7.5 13.1875 -7.5 13.1875 -9.4375 12.3125 C-10.118125 11.94125 -10.79875 11.57 -11.5 11.1875 C-12.4590625 11.06375 -12.4590625 11.06375 -13.4375 10.9375 C-16.81604053 9.70893981 -18.34339678 7.00306532 -20.5 4.1875 C-19.25108386 3.70551537 -18.00081192 3.22704323 -16.75 2.75 C-16.05390625 2.48316406 -15.3578125 2.21632813 -14.640625 1.94140625 C-9.74323068 0.21659402 -5.1690335 0.00438797 0 0 Z " fill="#80B53C" transform="translate(43.5,28.8125)"/>
<path d="M0 0 C-0.70397337 2.92608062 -1.37640748 5.43643286 -3 8 C-5.84301425 9.71571884 -8.21079885 10.29778689 -11.5 10.5625 C-13.74483824 10.75085115 -15.76807244 10.93098512 -17.9296875 11.57421875 C-20.67845146 12.13953058 -22.86978952 11.74014526 -25.625 11.25 C-27.06746094 11.01023437 -27.06746094 11.01023437 -28.5390625 10.765625 C-31 10 -31 10 -33 7 C-35.31 7 -37.62 7 -40 7 C-40 11.62 -40 16.24 -40 21 C-40.33 21 -40.66 21 -41 21 C-42.57099698 10.12386707 -42.57099698 10.12386707 -41 6 C-29.59118055 -0.94449879 -12.88881731 -0.20244216 0 0 Z " fill="#70503D" transform="translate(76,91)"/>
<path d="M0 0 C0.33 0 0.66 0 1 0 C0.88964039 3.39647413 0.75912556 6.79188789 0.625 10.1875 C0.57859375 11.62706055 0.57859375 11.62706055 0.53125 13.09570312 C0.47324219 14.49272461 0.47324219 14.49272461 0.4140625 15.91796875 C0.3826416 16.77156982 0.3512207 17.6251709 0.31884766 18.50463867 C-0.18193175 22.42383189 -1.19662748 25.19662748 -4 28 C-6.3828125 28.6328125 -6.3828125 28.6328125 -9.125 29.125 C-10.03507812 29.29257813 -10.94515625 29.46015625 -11.8828125 29.6328125 C-12.58148438 29.75398438 -13.28015625 29.87515625 -14 30 C-13.154375 29.34 -12.30875 28.68 -11.4375 28 C-8.80853377 25.37937345 -8.80853377 25.37937345 -8.92578125 22.95703125 C-9.22739827 20.9619982 -9.61053901 18.97976004 -10 17 C-9.67 16.34 -9.34 15.68 -9 15 C-10.32 15 -11.64 15 -13 15 C-13.33 13.02 -13.66 11.04 -14 9 C-13.34 8.67 -12.68 8.34 -12 8 C-11.34 7.34 -10.68 6.68 -10 6 C-8.68878529 5.25151494 -7.35239442 4.54622517 -6 3.875 C-5.29875 3.52179688 -4.5975 3.16859375 -3.875 2.8046875 C-2 2 -2 2 0 2 C0 1.34 0 0.68 0 0 Z " fill="#B86E3A" transform="translate(123,99)"/>
<path d="M0 0 C5.28 0.33 10.56 0.66 16 1 C16.33 2.98 16.66 4.96 17 7 C19.25702993 8.79129052 19.25702993 8.79129052 22.0625 9.875 C22.98160156 10.28492187 23.90070312 10.69484375 24.84765625 11.1171875 C25.55792969 11.40851563 26.26820312 11.69984375 27 12 C24 13 24 13 22 13 C21.34 13.66 20.68 14.32 20 15 C19.34 15.66 18.68 16.32 18 17 C17.34 17 16.68 17 16 17 C15.67 17.66 15.34 18.32 15 19 C14.34 18.34 13.68 17.68 13 17 C12.401875 16.731875 11.80375 16.46375 11.1875 16.1875 C5.68694925 13.20148673 2.71403845 8.4280769 0 3 C0 2.01 0 1.02 0 0 Z " fill="#64932D" transform="translate(11,59)"/>
<path d="M0 0 C31.34142656 -0.7143867 31.34142656 -0.7143867 42 5 C42 6.32 42 7.64 42 9 C37.77670036 12.69648472 32.42183883 12.97318172 27.0625 13.6875 C25.74088867 13.88182617 25.74088867 13.88182617 24.39257812 14.08007812 C19.89357709 14.71701535 15.55614892 15.15762624 11 15 C11 14.34 11 13.68 11 13 C10.01 12.67 9.02 12.34 8 12 C8.62567871 11.91959473 9.25135742 11.83918945 9.89599609 11.75634766 C12.72355296 11.38799282 15.54921035 11.0066651 18.375 10.625 C19.35984375 10.49867187 20.3446875 10.37234375 21.359375 10.2421875 C22.30039063 10.11328125 23.24140625 9.984375 24.2109375 9.8515625 C25.08024902 9.73635254 25.94956055 9.62114258 26.84521484 9.50244141 C29.19833324 9.15370801 29.19833324 9.15370801 31 7 C22.14942434 0.71894631 10.41074292 1.45420004 0 1 C0 0.67 0 0.34 0 0 Z " fill="#DE8252" transform="translate(81,92)"/>
<path d="M0 0 C4.29 0 8.58 0 13 0 C12.67 0.99 12.34 1.98 12 3 C12.268125 4.2375 12.53625 5.475 12.8125 6.75 C13.23093329 9.50553633 13.21157744 10.63215949 11.8046875 13.078125 C10.28503927 14.88408377 8.83448004 16.51383896 7 18 C6.34 18 5.68 18 5 18 C5 18.66 5 19.32 5 20 C-1.69675136 21.03026944 -8.2314676 21.10152799 -15 21 C-15 20.67 -15 20.34 -15 20 C-13.62714844 19.85304687 -13.62714844 19.85304687 -12.2265625 19.703125 C-11.03804688 19.55359375 -9.84953125 19.4040625 -8.625 19.25 C-7.44164063 19.11078125 -6.25828125 18.9715625 -5.0390625 18.828125 C-1.8911392 18.32388702 -1.8911392 18.32388702 -0.5859375 15.921875 C-0.39257812 15.28765625 -0.19921875 14.6534375 0 14 C0.99 14 1.98 14 3 14 C3.0272415 12.58344207 3.04650467 11.16672955 3.0625 9.75 C3.07410156 8.96109375 3.08570312 8.1721875 3.09765625 7.359375 C3.00251462 5.06075329 2.76316406 3.16949782 2 1 C1.34 0.67 0.68 0.34 0 0 Z " fill="#DA8947" transform="translate(85,138)"/>
<path d="M0 0 C0.33 0.66 0.66 1.32 1 2 C0.67 2.99 0.34 3.98 0 5 C1.84725052 5.69159401 1.84725052 5.69159401 4 6 C4.99 5.34 5.98 4.68 7 4 C7.99 4 8.98 4 10 4 C10 5.65 10 7.3 10 9 C10.99 8.67 11.98 8.34 13 8 C13.66 8.33 14.32 8.66 15 9 C15.680625 8.2575 15.680625 8.2575 16.375 7.5 C18 6 18 6 20 6 C20.2295711 9.36704285 20.33943529 11.41370268 18.625 14.375 C18.08875 14.91125 17.5525 15.4475 17 16 C16.34 16 15.68 16 15 16 C14.34 15.34 13.68 14.68 13 14 C11.68 14 10.36 14 9 14 C9.99 17.63 10.98 21.26 12 25 C10 24 10 24 9.21875 21.75 C8.5 19 8.5 19 7.78125 16.25 C7.2328113 13.82546793 7.2328113 13.82546793 5 13 C4.01 14.485 4.01 14.485 3 16 C1.68 16 0.36 16 -1 16 C-1.92350727 13.22947819 -2.16329585 11.43311242 -2.1875 8.5625 C-2.20167969 7.80066406 -2.21585938 7.03882813 -2.23046875 6.25390625 C-1.97612666 3.76652685 -1.24017196 2.15191894 0 0 Z " fill="#6E9E1F" transform="translate(66,12)"/>
<path d="M0 0 C2.97 0.33 5.94 0.66 9 1 C6.17505661 14.51937194 6.17505661 14.51937194 0 19 C-8.06162551 23.04329205 -16.21490751 23.36119074 -25.0625 23.375 C-26.58012939 23.37741699 -26.58012939 23.37741699 -28.12841797 23.37988281 C-36.10049538 23.25935754 -36.10049538 23.25935754 -40 21 C-38.87464844 21.01160156 -37.74929687 21.02320313 -36.58984375 21.03515625 C-26.67278878 21.10461253 -16.88546014 20.81649818 -7 20 C-7 19.34 -7 18.68 -7 18 C-6.0925 17.505 -5.185 17.01 -4.25 16.5 C-0.33022726 14.03026252 0.89891215 10.59455542 2.62890625 6.4375 C3.28188777 3.90456374 3.28188777 3.90456374 1.58984375 1.6875 C1.06519531 1.130625 0.54054687 0.57375 0 0 Z " fill="#A86B3B" transform="translate(104,137)"/>
<path d="M0 0 C2 3 2 3 1.64453125 5.26953125 C1.23267578 6.52830078 1.23267578 6.52830078 0.8125 7.8125 C0.37744141 9.14667969 0.37744141 9.14667969 -0.06640625 10.5078125 C-1 13 -1 13 -2.625 16.1875 C-4.22737998 19.46509541 -4.63893724 22.3893724 -5 26 C-3.68 26.33 -2.36 26.66 -1 27 C-1.66 27 -2.32 27 -3 27 C-3.33 31.95 -3.66 36.9 -4 42 C-5.32 42 -6.64 42 -8 42 C-9.59162079 36.42932723 -10.20674944 31.78898419 -10 26 C-9.34 26 -8.68 26 -8 26 C-7.85304688 24.83984375 -7.85304688 24.83984375 -7.703125 23.65625 C-6.73827222 16.93555132 -5.2397773 11.93959172 -2 6 C-2 5.01 -2 4.02 -2 3 C-1.34 3 -0.68 3 0 3 C0 2.01 0 1.02 0 0 Z " fill="#779629" transform="translate(84,55)"/>
<path d="M0 0 C-0.33 0.99 -0.66 1.98 -1 3 C-1.06929366 4.4229453 -1.0845799 5.84897711 -1.0625 7.2734375 C-1.05476563 8.0984375 -1.04703125 8.9234375 -1.0390625 9.7734375 C-1.01313811 11.50000176 -0.98709751 13.22656429 -0.9609375 14.953125 C-0.92208609 19.11022635 -0.9320459 22.94511179 -2 27 C-2.66 27 -3.32 27 -4 27 C-4.66 28.98 -5.32 30.96 -6 33 C-8.97 33.495 -8.97 33.495 -12 34 C-12.66 31.03 -13.32 28.06 -14 25 C-12.35 24.67 -10.7 24.34 -9 24 C-8.67 24.99 -8.34 25.98 -8 27 C-7.34 27 -6.68 27 -6 27 C-4.22330777 23.93843346 -3.75949182 21.75963785 -3.8046875 18.234375 C-3.81113281 17.34492188 -3.81757812 16.45546875 -3.82421875 15.5390625 C-3.84097656 14.61867188 -3.85773438 13.69828125 -3.875 12.75 C-3.88402344 11.81414063 -3.89304687 10.87828125 -3.90234375 9.9140625 C-3.92586364 7.60911343 -3.95873147 5.3046884 -4 3 C-4.99 3.495 -4.99 3.495 -6 4 C-6 3.34 -6 2.68 -6 2 C-8.91517292 3.07401108 -10.77810176 3.77810176 -13 6 C-13.99 5.34 -14.98 4.68 -16 4 C-10.59316713 0.4469384 -6.40508852 -0.14895555 0 0 Z " fill="#5A821A" transform="translate(89,1)"/>
<path d="M0 0 C0.66 0.99 1.32 1.98 2 3 C4.36501963 3.72913649 6.5110903 4.22353226 8.9375 4.625 C9.65953613 4.75052246 10.38157227 4.87604492 11.12548828 5.00537109 C19.69412477 6.33701918 28.33967777 6.50752839 36.99584961 6.70947266 C38.68013062 6.74886963 38.68013062 6.74886963 40.3984375 6.7890625 C41.90929932 6.81540771 41.90929932 6.81540771 43.45068359 6.84228516 C46 7 46 7 49 8 C49 8.66 49 9.32 49 10 C22.2516993 9.4716313 22.2516993 9.4716313 9.125 7.625 C8.28364502 7.51115967 7.44229004 7.39731934 6.57543945 7.2800293 C1.9043229 6.56180141 -1.90428357 5.50365111 -6 3 C-6.33 2.34 -6.66 1.68 -7 1 C-4.46578263 -0.26710868 -2.80561762 -0.28056176 0 0 Z " fill="#D98053" transform="translate(43,97)"/>
<path d="M0 0 C1.39035371 4.17106112 -0.09769194 7.18206859 -1.4375 11.1875 C-1.68048828 11.93708984 -1.92347656 12.68667969 -2.17382812 13.45898438 C-2.77465056 15.30857501 -3.38629678 17.15464327 -4 19 C0.3149954 18.43584866 4.02408182 17.80723554 8 16 C8 17.32 8 18.64 8 20 C9.32 20.33 10.64 20.66 12 21 C11.01 21 10.02 21 9 21 C9.84488778 23.15585998 9.84488778 23.15585998 11.98046875 24.1171875 C16.1342704 25.33162369 20.01145001 25.21326148 24.3125 25.125 C25.56643555 25.11146484 25.56643555 25.11146484 26.84570312 25.09765625 C28.89725969 25.07420989 30.94866777 25.03834266 33 25 C29.39421883 27.40385411 26.67649465 27.3827495 22.5 27.375 C21.42794312 27.37693359 21.42794312 27.37693359 20.33422852 27.37890625 C14.82487714 27.27001845 10.42118226 26.06977881 5.34375 23.8828125 C2.07851729 22.65290818 -0.55003542 22.853193 -4 23 C-6 21 -6 21 -6.375 17.9375 C-5.90489558 13.00140355 -4.15637246 9.40327963 -2 5 C-1.32165413 3.33805262 -0.64800425 1.67401097 0 0 Z " fill="#52701D" transform="translate(85,60)"/>
<path d="M0 0 C0.66 0.33 1.32 0.66 2 1 C1.59007813 1.43570312 1.18015625 1.87140625 0.7578125 2.3203125 C-1.96252428 5.32700052 -3.82420131 7.47260394 -5.125 11.375 C-5.41375 12.24125 -5.7025 13.1075 -6 14 C-8.49674352 15.12756159 -10.23473727 15 -13 15 C-13.66 14.67 -14.32 14.34 -15 14 C-14.70980098 10.22741269 -14.48342371 7.67334017 -12.25 4.5625 C-9.52234858 2.66829762 -8.25121121 2.92070217 -5 3 C-3.31970006 2.02308143 -1.65071396 1.02611949 0 0 Z " fill="#89C148" transform="translate(81,3)"/>
<path d="M0 0 C0.59683594 0.26554687 1.19367187 0.53109375 1.80859375 0.8046875 C15.10780897 6.21922683 29.82000746 6.27477831 44 7 C44 7.33 44 7.66 44 8 C38.29255787 9.28666752 32.70349843 9.26131295 26.875 9.3125 C25.25851563 9.35600586 25.25851563 9.35600586 23.609375 9.40039062 C15.78478198 9.46166756 7.44195459 8.71684785 1.19482422 3.48950195 C0 2 0 2 0 0 Z " fill="#FE9A5E" transform="translate(36,99)"/>
<path d="M0 0 C2.75026417 -0.05404449 5.49946203 -0.09369306 8.25 -0.125 C9.02730469 -0.14175781 9.80460937 -0.15851562 10.60546875 -0.17578125 C17.72431144 -0.23662606 17.72431144 -0.23662606 21 2 C21 2.66 21 3.32 21 4 C21.66 4 22.32 4 23 4 C21.125 10.75 21.125 10.75 20 13 C21.65 13.99 23.3 14.98 25 16 C24.34 16.33 23.68 16.66 23 17 C20.3984375 16.00390625 20.3984375 16.00390625 17.375 14.5625 C16.37210938 14.08941406 15.36921875 13.61632813 14.3359375 13.12890625 C13.56507812 12.75636719 12.79421875 12.38382813 12 12 C15 10 15 10 17 10 C16.34 9.236875 15.68 8.47375 15 7.6875 C13 5 13 5 13 2 C8.71 1.67 4.42 1.34 0 1 C0 0.67 0 0.34 0 0 Z " fill="#73A136" transform="translate(35,29)"/>
<path d="M0 0 C0 0.66 0 1.32 0 2 C-0.99012085 2.07516846 -0.99012085 2.07516846 -2.00024414 2.15185547 C-5.02162339 2.38547136 -8.04201165 2.63014493 -11.0625 2.875 C-12.62000977 2.99294922 -12.62000977 2.99294922 -14.20898438 3.11328125 C-19.69136305 3.56579505 -24.8483785 4.0008633 -30 6 C-30.99 7.485 -30.99 7.485 -32 9 C-32.33 8.34 -32.66 7.68 -33 7 C-35.31 7 -37.62 7 -40 7 C-40 11.62 -40 16.24 -40 21 C-40.33 21 -40.66 21 -41 21 C-42.57099698 10.12386707 -42.57099698 10.12386707 -41 6 C-29.59118055 -0.94449879 -12.88881731 -0.20244216 0 0 Z " fill="#97674A" transform="translate(76,91)"/>
<path d="M0 0 C-0.73033135 3.19398245 -1.46495463 6.38684713 -2.20703125 9.578125 C-2.67240329 11.58633144 -3.13118277 13.59612306 -3.57421875 15.609375 C-3.98756707 17.42149403 -4.48485145 19.21415169 -5 21 C-5.66 21.33 -6.32 21.66 -7 22 C-6.34 18.37 -5.68 14.74 -5 11 C-7.56893838 9.71553081 -9.76576337 9.67022856 -12.625 9.4375 C-13.62789063 9.35371094 -14.63078125 9.26992187 -15.6640625 9.18359375 C-16.82035156 9.09271484 -16.82035156 9.09271484 -18 9 C-17.67 8.01 -17.34 7.02 -17 6 C-14.93359375 5.26953125 -14.93359375 5.26953125 -12.4375 4.8125 C-11.61121094 4.65394531 -10.78492187 4.49539062 -9.93359375 4.33203125 C-9.29550781 4.22246094 -8.65742187 4.11289063 -8 4 C-8 3.01 -8 2.02 -8 1 C-3.375 -1.125 -3.375 -1.125 0 0 Z " fill="#8E5E34" transform="translate(117,128)"/>
<path d="M0 0 C5.28 0.33 10.56 0.66 16 1 C16.33 2.65 16.66 4.3 17 6 C16.01 6.495 16.01 6.495 15 7 C12.375 6.0625 12.375 6.0625 10 5 C10 5.66 10 6.32 10 7 C10.99 7.33 11.98 7.66 13 8 C12.67 8.66 12.34 9.32 12 10 C9.69 9.67 7.38 9.34 5 9 C5 8.34 5 7.68 5 7 C4.360625 6.773125 3.72125 6.54625 3.0625 6.3125 C2.381875 5.879375 1.70125 5.44625 1 5 C0.67 3.35 0.34 1.7 0 0 Z " fill="#6D9F37" transform="translate(11,59)"/>
<path d="M0 0 C1.65 0 3.3 0 5 0 C5 0.66 5 1.32 5 2 C6.45833358 3.62514468 6.45833358 3.62514468 8 5 C7.5 8.3125 7.5 8.3125 6 12 C3.48675666 13.62302324 0.95231268 14.5323069 -2 15 C-2.99 14.67 -3.98 14.34 -5 14 C-3.35 13.01 -1.7 12.02 0 11 C-0.08378906 10.37351562 -0.16757813 9.74703125 -0.25390625 9.1015625 C-0.40666016 7.87566406 -0.40666016 7.87566406 -0.5625 6.625 C-0.66691406 5.81289062 -0.77132812 5.00078125 -0.87890625 4.1640625 C-1 2 -1 2 0 0 Z " fill="#B1723E" transform="translate(114,114)"/>
<path d="M0 0 C1.6484375 0.31640625 1.6484375 0.31640625 4 1 C5.04414063 1.29777344 6.08828125 1.59554687 7.1640625 1.90234375 C8.30617188 2.24394531 9.44828125 2.58554687 10.625 2.9375 C11.77226563 3.27652344 12.91953125 3.61554687 14.1015625 3.96484375 C17 5 17 5 19 7 C18.34 7.66 17.68 8.32 17 9 C17 8.34 17 7.68 17 7 C16.34 7 15.68 7 15 7 C15 7.66 15 8.32 15 9 C12 10 12 10 10.0625 9.125 C9.381875 8.75375 8.70125 8.3825 8 8 C7.360625 7.9175 6.72125 7.835 6.0625 7.75 C2.68395947 6.52143981 1.15660322 3.81556532 -1 1 C-0.67 0.67 -0.34 0.34 0 0 Z " fill="#709C2D" transform="translate(24,32)"/>
<path d="M0 0 C0.33 0 0.66 0 1 0 C0.8899083 3.41731792 0.75932939 6.83355574 0.625 10.25 C0.5940625 11.21808594 0.563125 12.18617187 0.53125 13.18359375 C0.49257812 14.11816406 0.45390625 15.05273438 0.4140625 16.015625 C0.3826416 16.87446289 0.3512207 17.73330078 0.31884766 18.61816406 C-0.01716204 21.1282028 -0.74191728 22.81932328 -2 25 C-1.9071875 23.576875 -1.9071875 23.576875 -1.8125 22.125 C-1.874375 21.09375 -1.93625 20.0625 -2 19 C-2.99 18.34 -3.98 17.68 -5 17 C-5 16.01 -5 15.02 -5 14 C-4.34 14 -3.68 14 -3 14 C-3 12.68 -3 11.36 -3 10 C-3.66 9.34 -4.32 8.68 -5 8 C-5 7.34 -5 6.68 -5 6 C-3.35 5.34 -1.7 4.68 0 4 C0 2.68 0 1.36 0 0 Z " fill="#906137" transform="translate(123,99)"/>
<path d="M0 0 C3 2 3 2 3.73046875 4.3828125 C3.88128906 5.28773437 4.03210938 6.19265625 4.1875 7.125 C4.34605469 8.03507812 4.50460938 8.94515625 4.66796875 9.8828125 C4.77753906 10.58148438 4.88710937 11.28015625 5 12 C-1.48489426 10.53172205 -1.48489426 10.53172205 -3.9375 8 C-5 6 -5 6 -5 4 C-4.01 3.67 -3.02 3.34 -2 3 C-1.34 2.01 -0.68 1.02 0 0 Z " fill="#5A8117" transform="translate(71,24)"/>
<path d="M0 0 C8.415 1.98 8.415 1.98 17 4 C17 4.66 17 5.32 17 6 C18.32 6.33 19.64 6.66 21 7 C13.6379306 6.5140207 6.30899482 6.02325928 -1 5 C-0.67 3.35 -0.34 1.7 0 0 Z " fill="#DF8B48" transform="translate(46,130)"/>
<path d="M0 0 C-2.39503687 1.12672175 -4.7909871 2.25142558 -7.1875 3.375 C-8.19780273 3.85066406 -8.19780273 3.85066406 -9.22851562 4.3359375 C-18.17797893 8.52690568 -25.33671514 11.42241339 -35 8 C-35 7.67 -35 7.34 -35 7 C-28.375 6.875 -28.375 6.875 -25 8 C-24.67 7.34 -24.34 6.68 -24 6 C-22.00511766 5.63729412 -20.00401011 5.30830925 -18 5 C-15.52384545 4.12999975 -13.18815113 3.09136835 -10.828125 1.9453125 C-10.03921875 1.57148437 -9.2503125 1.19765625 -8.4375 0.8125 C-7.69371094 0.44769531 -6.94992188 0.08289063 -6.18359375 -0.29296875 C-3.67739597 -1.10445676 -2.44701547 -0.8711597 0 0 Z " fill="#3C4E12" transform="translate(71,80)"/>
<path d="M0 0 C3.9374352 -0.05893685 7.87475427 -0.09390669 11.8125 -0.125 C13.46282227 -0.15013672 13.46282227 -0.15013672 15.14648438 -0.17578125 C22.32536862 -0.21813455 28.99126695 0.43741455 36 2 C36 2.33 36 2.66 36 3 C29.81017321 5.21899451 26.47390233 4.77645046 20.296875 2.8046875 C13.67804181 1.1891903 6.78636951 1.23072065 0 1 C0 0.67 0 0.34 0 0 Z " fill="#AD704F" transform="translate(81,92)"/>
<path d="M0 0 C0.33 0.66 0.66 1.32 1 2 C0.67 2.99 0.34 3.98 0 5 C1.84725052 5.69159401 1.84725052 5.69159401 4 6 C4.99 5.34 5.98 4.68 7 4 C7.66 4.33 8.32 4.66 9 5 C8.67 6.98 8.34 8.96 8 11 C7.67 10.01 7.34 9.02 7 8 C5.576875 8.99 5.576875 8.99 4.125 10 C1 12 1 12 -1 12 C-2.24834144 9.50331711 -1.95155125 8.18670849 -1.625 5.4375 C-1.53476563 4.63183594 -1.44453125 3.82617188 -1.3515625 2.99609375 C-1 1 -1 1 0 0 Z " fill="#6D9A2A" transform="translate(66,12)"/>
<path d="M0 0 C1.09731445 0.01353516 1.09731445 0.01353516 2.21679688 0.02734375 C3.99884298 0.05063847 5.78071759 0.0864981 7.5625 0.125 C7.5625 0.455 7.5625 0.785 7.5625 1.125 C6.83546875 1.23457031 6.1084375 1.34414062 5.359375 1.45703125 C-2.02632317 2.62169904 -9.21302138 4.20359611 -16.4375 6.125 C-16.1075 4.805 -15.7775 3.485 -15.4375 2.125 C-10.12218311 0.35089949 -5.58131195 -0.1327668 0 0 Z " fill="#624739" transform="translate(61.4375,93.875)"/>
<path d="M0 0 C0.93423645 3.01031744 1.04449911 3.86650268 0 7 C0.66 7.33 1.32 7.66 2 8 C1.01 8.33 0.02 8.66 -1 9 C-1 9.99 -1 10.98 -1 12 C-0.34 12 0.32 12 1 12 C1.33 13.65 1.66 15.3 2 17 C0.02 18.32 -1.96 19.64 -4 21 C-3.39700836 13.76410027 -1.8849413 7.00629124 0 0 Z " fill="#668D22" transform="translate(94,35)"/>
<path d="M0 0 C1.39035371 4.17106112 -0.09769194 7.18206859 -1.4375 11.1875 C-1.68048828 11.93708984 -1.92347656 12.68667969 -2.17382812 13.45898438 C-2.77465056 15.30857501 -3.38629678 17.15464327 -4 19 C0.64586892 18.51515724 0.64586892 18.51515724 5 17 C4.01 19.475 4.01 19.475 3 22 C-0.375 22.625 -0.375 22.625 -4 23 C-6 21 -6 21 -6.375 17.9375 C-5.90489558 13.00140355 -4.15637246 9.40327963 -2 5 C-1.32165413 3.33805262 -0.64800425 1.67401097 0 0 Z " fill="#4D641B" transform="translate(85,60)"/>
<path d="M0 0 C0.99 1.485 0.99 1.485 2 3 C-5.28571429 6.42857143 -5.28571429 6.42857143 -10 6 C-9.360625 5.71125 -8.72125 5.4225 -8.0625 5.125 C-5.84793921 4.17176549 -5.84793921 4.17176549 -5 2 C-6.65 2 -8.3 2 -10 2 C-10 1.01 -10 0.02 -10 -1 C-6.18332364 -2.46795245 -3.67140851 -1.59626457 0 0 Z " fill="#72503C" transform="translate(111,97)"/>
<path d="M0 0 C8.91469911 -0.23737365 17.25607982 0.20637535 26 2 C26 2.33 26 2.66 26 3 C22.97892098 3.0543251 19.95883472 3.09382927 16.9375 3.125 C16.08994141 3.14175781 15.24238281 3.15851563 14.36914062 3.17578125 C9.16581799 3.21596135 4.92530179 2.69745815 0 1 C0 0.67 0 0.34 0 0 Z " fill="#AC6936" transform="translate(72,134)"/>
<path d="M0 0 C0.66 0.99 1.32 1.98 2 3 C4.55183404 4.20450304 4.55183404 4.20450304 7 5 C7 5.66 7 6.32 7 7 C-2.17286652 5.66958425 -2.17286652 5.66958425 -5.625 2.875 C-6.07875 2.25625 -6.5325 1.6375 -7 1 C-4.46578263 -0.26710868 -2.80561762 -0.28056176 0 0 Z " fill="#DE8762" transform="translate(43,97)"/>
<path d="M0 0 C0.33 0.66 0.66 1.32 1 2 C3.02463255 2.65213292 3.02463255 2.65213292 5 3 C4.34 3 3.68 3 3 3 C2.67 7.95 2.34 12.9 2 18 C0.68 18 -0.64 18 -2 18 C-2 16.35 -2 14.7 -2 13 C-1.34 13.66 -0.68 14.32 0 15 C0 10.05 0 5.1 0 0 Z " fill="#718D21" transform="translate(78,79)"/>
<path d="M0 0 C4.70238725 0.46101836 8.23262357 1.03176403 12 4 C12 4.99 12 5.98 12 7 C10.68 6.67 9.36 6.34 8 6 C7.01 7.485 7.01 7.485 6 9 C5.34 8.67 4.68 8.34 4 8 C4.33 6.68 4.66 5.36 5 4 C4.175 3.525625 3.35 3.05125 2.5 2.5625 C1.675 2.046875 0.85 1.53125 0 1 C0 0.67 0 0.34 0 0 Z " fill="#649421" transform="translate(37,60)"/>
<path d="M0 0 C0.66 0.33 1.32 0.66 2 1 C1.34 3.31 0.68 5.62 0 8 C0.99 8.33 1.98 8.66 3 9 C3.33 10.65 3.66 12.3 4 14 C1.03 13.505 1.03 13.505 -2 13 C-3.46845421 7.52667068 -2.44038726 4.88077452 0 0 Z " fill="#75AD28" transform="translate(78,8)"/>
<path d="M0 0 C8.57142857 -0.28571429 8.57142857 -0.28571429 12 2 C12 3.32 12 4.64 12 6 C10.3125 6.8125 10.3125 6.8125 8 7 C5.4375 4.6875 5.4375 4.6875 3 2 C2.01 1.34 1.02 0.68 0 0 Z " fill="#CD7F5F" transform="translate(111,95)"/>
<path d="M0 0 C0 1.65 0 3.3 0 5 C-0.66 5 -1.32 5 -2 5 C-2.99 6.485 -2.99 6.485 -4 8 C-5.32 8 -6.64 8 -8 8 C-8.33 6.02 -8.66 4.04 -9 2 C-8.67 2.66 -8.34 3.32 -8 4 C-7.05125 3.34 -6.1025 2.68 -5.125 2 C-2 0 -2 0 0 0 Z " fill="#66931D" transform="translate(73,20)"/>
<path d="M0 0 C3.63 0 7.26 0 11 0 C11.33 1.65 11.66 3.3 12 5 C11.01 5.495 11.01 5.495 10 6 C7.6171875 5.00390625 7.6171875 5.00390625 4.875 3.5625 C3.96492188 3.08941406 3.05484375 2.61632813 2.1171875 2.12890625 C1.41851563 1.75636719 0.71984375 1.38382813 0 1 C0 0.67 0 0.34 0 0 Z " fill="#76AC40" transform="translate(16,60)"/>
<path d="M0 0 C-0.33 0.99 -0.66 1.98 -1 3 C-2.65 3.33 -4.3 3.66 -6 4 C-6 3.34 -6 2.68 -6 2 C-8.91517292 3.07401108 -10.77810176 3.77810176 -13 6 C-13.99 5.34 -14.98 4.68 -16 4 C-10.59316713 0.4469384 -6.40508852 -0.14895555 0 0 Z " fill="#68902D" transform="translate(89,1)"/>
<path d="M0 0 C0.99 0.66 1.98 1.32 3 2 C-0.08809695 3.76462683 -1.23312136 4 -5 4 C-5 4.66 -5 5.32 -5 6 C-11.96428571 8.27678571 -11.96428571 8.27678571 -16 7 C-14.27149655 6.20688633 -12.54216646 5.4155741 -10.8125 4.625 C-9.36810547 3.96371094 -9.36810547 3.96371094 -7.89453125 3.2890625 C-6.93933594 2.86367187 -5.98414062 2.43828125 -5 2 C-4.11699219 1.57460937 -3.23398438 1.14921875 -2.32421875 0.7109375 C-1.55722656 0.47632812 -0.79023437 0.24171875 0 0 Z " fill="#759E25" transform="translate(109,72)"/>
<path d="M0 0 C-0.33 1.32 -0.66 2.64 -1 4 C0.65 4.99 2.3 5.98 4 7 C3.01 7.495 3.01 7.495 2 8 C-0.6015625 7.00390625 -0.6015625 7.00390625 -3.625 5.5625 C-4.62789062 5.08941406 -5.63078125 4.61632813 -6.6640625 4.12890625 C-7.43492188 3.75636719 -8.20578125 3.38382813 -9 3 C-4.5 0 -4.5 0 0 0 Z " fill="#6EA028" transform="translate(56,38)"/>
<path d="M0 0 C0.55429688 0.42152344 1.10859375 0.84304687 1.6796875 1.27734375 C2.40414062 1.82519531 3.12859375 2.37304688 3.875 2.9375 C4.59429687 3.48277344 5.31359375 4.02804688 6.0546875 4.58984375 C7.94357079 6.03964624 7.94357079 6.03964624 10 7 C10.33 5.35 10.66 3.7 11 2 C11.93423645 5.01031744 12.04449911 5.86650268 11 9 C10.01 9.33 9.02 9.66 8 10 C4.69652008 7.77015105 2.13543707 5.37174274 0 2 C0 1.34 0 0.68 0 0 Z " fill="#4C631B" transform="translate(65,72)"/>
<path d="M0 0 C-4.19572352 3.05654046 -7.17892276 3.33143207 -12.3125 3.1875 C-13.56675781 3.16042969 -14.82101563 3.13335937 -16.11328125 3.10546875 C-17.54220703 3.05326172 -17.54220703 3.05326172 -19 3 C-15.66406996 1.16486699 -12.76561555 0.61193455 -8.96484375 0.22265625 C-6.83480791 0.01479634 -6.83480791 0.01479634 -4.125 -0.625 C-2 -1 -2 -1 0 0 Z " fill="#547518" transform="translate(111,52)"/>
<path d="M0 0 C7.75 0.75 7.75 0.75 10 3 C9.34 3.66 8.68 4.32 8 5 C8 4.34 8 3.68 8 3 C7.34 3 6.68 3 6 3 C6 3.66 6 4.32 6 5 C5.01 5.33 4.02 5.66 3 6 C0 1.125 0 1.125 0 0 Z " fill="#76A728" transform="translate(33,36)"/>
<path d="M0 0 C0.66 0.33 1.32 0.66 2 1 C1.60265845 2.94155532 1.18136959 4.87822038 0.75 6.8125 C0.40195313 8.43091797 0.40195313 8.43091797 0.046875 10.08203125 C-1.10978162 13.3059958 -2.09650135 14.29029522 -5 16 C-4.19406029 12.52825971 -3.01324398 9.31390458 -1.71875 6 C-1.00662776 4.01844247 -0.47584957 2.04981352 0 0 Z " fill="#A46A3C" transform="translate(111,138)"/>
<path d="M0 0 C7.92 0.33 15.84 0.66 24 1 C24 1.33 24 1.66 24 2 C16.74 2 9.48 2 2 2 C1.67 2.66 1.34 3.32 1 4 C0.67 2.68 0.34 1.36 0 0 Z " fill="#42531D" transform="translate(9,57)"/>
<path d="M0 0 C0.33 0 0.66 0 1 0 C2.20465156 4.65798604 3.28547412 9.23649415 4 14 C3.01 14.33 2.02 14.66 1 15 C-0.00109515 11.68929162 -0.10356134 8.69915231 -0.0625 5.25 C-0.05347656 4.26515625 -0.04445313 3.2803125 -0.03515625 2.265625 C-0.02355469 1.51796875 -0.01195313 0.7703125 0 0 Z " fill="#435716" transform="translate(81,37)"/>
<path d="M0 0 C5.75 0.75 5.75 0.75 8 3 C8.33 3.99 8.66 4.98 9 6 C7.35 6 5.7 6 4 6 C4 5.34 4 4.68 4 4 C2.70766393 2.62689293 1.37562854 1.28965176 0 0 Z " fill="#E3875A" transform="translate(110,96)"/>
<path d="M0 0 C0.99 0.33 1.98 0.66 3 1 C2.67 2.98 2.34 4.96 2 7 C1.67 6.01 1.34 5.02 1 4 C-1.64 4.33 -4.28 4.66 -7 5 C-7 4.34 -7 3.68 -7 3 C-5.5459375 2.5359375 -5.5459375 2.5359375 -4.0625 2.0625 C-1.15934208 1.30476658 -1.15934208 1.30476658 0 0 Z " fill="#7AB02B" transform="translate(72,16)"/>
<path d="M0 0 C2.4375 0.8125 2.4375 0.8125 5 2 C5.33 2.99 5.66 3.98 6 5 C3.69 5 1.38 5 -1 5 C-0.67 3.35 -0.34 1.7 0 0 Z " fill="#EA934D" transform="translate(46,130)"/>
<path d="M0 0 C1.4370809 -0.05422947 2.87475462 -0.09289723 4.3125 -0.125 C5.11300781 -0.14820312 5.91351563 -0.17140625 6.73828125 -0.1953125 C9 0 9 0 12 2 C7.545 2.495 7.545 2.495 3 3 C3 2.34 3 1.68 3 1 C2.01 0.67 1.02 0.34 0 0 Z " fill="#E58552" transform="translate(89,104)"/>
<path d="M0 0 C1.98 0.495 1.98 0.495 4 1 C4 1.66 4 2.32 4 3 C4.99 3.33 5.98 3.66 7 4 C6.67 4.66 6.34 5.32 6 6 C2.73045798 5.43628586 1.17424117 4.50037734 -1 2 C-0.67 1.34 -0.34 0.68 0 0 Z " fill="#76AC44" transform="translate(17,63)"/>
<path d="M0 0 C0.33 0.66 0.66 1.32 1 2 C1.66 2 2.32 2 3 2 C2.34 3.65 1.68 5.3 1 7 C-0.65 6.67 -2.3 6.34 -4 6 C-3.34 5.01 -2.68 4.02 -2 3 C-1.34 3 -0.68 3 0 3 C0 2.01 0 1.02 0 0 Z " fill="#77AA2F" transform="translate(55,31)"/>
<path d="M0 0 C0.33 0.66 0.66 1.32 1 2 C0.67 2.66 0.34 3.32 0 4 C-2.48412207 4.82804069 -4.35220307 5 -7 5 C-7.66 4.34 -8.32 3.68 -9 3 C-6 2 -3 1 0 0 Z " fill="#82BC3C" transform="translate(75,13)"/>
<path d="M0 0 C3.4375 1.3125 3.4375 1.3125 7 3 C7.33 3.99 7.66 4.98 8 6 C4.37 5.01 0.74 4.02 -3 3 C-2.01 2.67 -1.02 2.34 0 2 C0 1.34 0 0.68 0 0 Z " fill="#445A19" transform="translate(75,54)"/>
<path d="M0 0 C3.63 0.33 7.26 0.66 11 1 C11 1.33 11 1.66 11 2 C5.6549136 3.66486298 5.6549136 3.66486298 3 4 C1 2.6875 1 2.6875 0 1 C0 0.67 0 0.34 0 0 Z " fill="#90654A" transform="translate(106,93)"/>
<path d="M0 0 C0.99 0.99 1.98 1.98 3 3 C2.6875 5.1875 2.6875 5.1875 2 7 C2.66 7.33 3.32 7.66 4 8 C3.67 9.98 3.34 11.96 3 14 C2.67 14 2.34 14 2 14 C1.34 9.38 0.68 4.76 0 0 Z " fill="#A66E3E" transform="translate(43,128)"/>
<path d="M0 0 C-1.98 1.32 -3.96 2.64 -6 4 C-6.66 3.67 -7.32 3.34 -8 3 C-7.67 2.01 -7.34 1.02 -7 0 C-3.86650268 -1.04449911 -3.01031744 -0.93423645 0 0 Z " fill="#547825" transform="translate(126,81)"/>
<path d="M0 0 C0.66 0.33 1.32 0.66 2 1 C0.86500606 4.29148243 0.00716624 4.9959869 -3.125 6.75 C-4.548125 7.36875 -4.548125 7.36875 -6 8 C-4.55746343 4.63408134 -2.66735273 2.48952921 0 0 Z " fill="#567825" transform="translate(100,63)"/>
<path d="M0 0 C0.66 0.66 1.32 1.32 2 2 C3.31747324 2.69748583 4.64914193 3.36959957 6 4 C5 5 5 5 2.4375 5.0625 C1.2309375 5.0315625 1.2309375 5.0315625 0 5 C0 4.34 0 3.68 0 3 C-0.99 2.67 -1.98 2.34 -3 2 C-2.01 1.34 -1.02 0.68 0 0 Z " fill="#CC7B53" transform="translate(113,99)"/>
<path d="M0 0 C2.375 0.3125 2.375 0.3125 5 1 C5.66 1.99 6.32 2.98 7 4 C5.35 4.33 3.7 4.66 2 5 C2 3.68 2 2.36 2 1 C1.34 0.67 0.68 0.34 0 0 Z " fill="#684B3A" transform="translate(106,96)"/>
<path d="M0 0 C4.38889325 0.66498383 7.9811485 2.18757677 12 4 C8.35839192 5.21386936 7.66834531 4.6674695 4.3125 3.0625 C3.10013672 2.49208984 3.10013672 2.49208984 1.86328125 1.91015625 C1.24839844 1.60980469 0.63351563 1.30945313 0 1 C0 0.67 0 0.34 0 0 Z " fill="#689421" transform="translate(26,67)"/>
<path d="M0 0 C0.93423645 3.01031744 1.04449911 3.86650268 0 7 C0.66 7.33 1.32 7.66 2 8 C1.01 8.33 0.02 8.66 -1 9 C-1.33 9.99 -1.66 10.98 -2 12 C-1.85831863 10.56208484 -1.71148957 9.1246763 -1.5625 7.6875 C-1.48128906 6.88699219 -1.40007812 6.08648437 -1.31640625 5.26171875 C-1 3 -1 3 0 0 Z " fill="#537220" transform="translate(94,35)"/>
<path d="M0 0 C3.3 0.33 6.6 0.66 10 1 C10 1.33 10 1.66 10 2 C8.3603125 2.2165625 8.3603125 2.2165625 6.6875 2.4375 C3.06877013 2.88288104 3.06877013 2.88288104 0 4 C0 2.68 0 1.36 0 0 Z " fill="#5A4236" transform="translate(82,93)"/>
<path d="M0 0 C-0.99 0 -1.98 0 -3 0 C-2.67 0.99 -2.34 1.98 -2 3 C-4.31 2.67 -6.62 2.34 -9 2 C-4.13793103 -1.24137931 -4.13793103 -1.24137931 0 0 Z " fill="#557A20" transform="translate(97,81)"/>
<path d="M0 0 C-4.625 3 -4.625 3 -8 3 C-8 2.34 -8 1.68 -8 1 C-4.93251126 -0.86240388 -3.40254489 -1.2151946 0 0 Z " fill="#72A329" transform="translate(120,70)"/>
<path d="M0 0 C2.97 0.495 2.97 0.495 6 1 C6.33 2.32 6.66 3.64 7 5 C4.0625 4.1875 4.0625 4.1875 1 3 C0.67 2.01 0.34 1.02 0 0 Z " fill="#415B13" transform="translate(71,35)"/>
</svg>
